<svg width="200" height="200" viewBox="0 0 200 200" fill="none" xmlns="http://www.w3.org/2000/svg">
  <rect x="40" y="40" width="120" height="120" rx="10" fill="#FFF" stroke="#E58FB3" stroke-width="4"/>
  <path d="M70 80C70 77.2386 72.2386 75 75 75V75C77.7614 75 80 77.2386 80 80V130C80 132.761 77.7614 135 75 135V135C72.2386 135 70 132.761 70 130V80Z" fill="#E58FB3"/>
  <path d="M90 80C90 77.2386 92.2386 75 95 75V75C97.7614 75 100 77.2386 100 80V130C100 132.761 97.7614 135 95 135V135C92.2386 135 90 132.761 90 130V80Z" fill="#E58FB3"/>
  <path d="M110 80C110 77.2386 112.239 75 115 75V75C117.761 75 120 77.2386 120 80V130C120 132.761 117.761 135 115 135V135C112.239 135 110 132.761 110 130V80Z" fill="#E58FB3"/>
  <path d="M65 65C65 62.2386 67.2386 60 70 60H130C132.761 60 135 62.2386 135 65V65C135 67.7614 132.761 70 130 70H70C67.2386 70 65 67.7614 65 65V65Z" fill="#E58FB3"/>
</svg> 